PathFileType	4	(X/Y/Z)	D:\Share\Shared_Data\Ergonomics\Sit To Stand Pertubation\S3\Perturbed.trc
DataRate	CameraRate	NumFrames	NumMarkers	Units	OrigDataRate	OrigDataStartFrame	OrigNumFrames	
100	100	7	18	m	100	3801	231
Frame#	Time	R_ASIS			R_Pelvis			V_Sacral			L_Pelvis			L_ASIS			Clavical			R_Acromium			L_Acromium			Sternum			Torso			R_Thigh_Med			R_Thigh_Lat			R_Thigh			R_Shank_Med			R_Shank_Lat			R_Shank			R_Heel			R_Toe			
		X1	Y1	Z1	X2	Y2	Z2	X3	Y3	Z3	X4	Y4	Z4	X5	Y5	Z5	X6	Y6	Z6	X7	Y7	Z7	X8	Y8	Z8	X9	Y9	Z9	X10	Y10	Z10	X11	Y11	Z11	X12	Y12	Z12	X13	Y13	Z13	X14	Y14	Z14	X15	Y15	Z15	X16	Y16	Z16	X17	Y17	Z17	X18	Y18	Z18	

3801	38	0.021578091	0.64396552	0.14654971	-0.090205994	0.6266131	0.19745717	-0.19457335	0.62058582	0.0089451532	-0.077030235	0.64372827	-0.18994989	0.032006191	0.63963953	-0.13675081	0.0077837591	1.0366376	-0.0089893141	-0.045526199	1.1034641	0.16123268	-0.030835623	1.0967604	-0.1699538	0.029302446	0.96122778	-0.00012563248	0.012787781	1.0228369	-0.069603729	0.37237119	0.46431525	0.079007416	0.35482681	0.44710367	0.19688847	0.19041806	0.57971771	0.11276169	0.28884366	0.1088912	0.10386756	0.26629984	0.09683847	0.18424623	0.29465933	0.27373862	0.20561252	0.21045258	0.051461979	0.13338152	0.42785403	0.056615826	0.13575768
3802	38.01	0.021590448	0.64399414	0.1465528	-0.090168686	0.62659814	0.19750346	-0.19464841	0.62057214	0.0090750351	-0.077199059	0.64373883	-0.18989967	0.031855211	0.63964856	-0.13673135	0.007586514	1.0366869	-0.0090058985	-0.045786301	1.1034685	0.16115103	-0.031062923	1.0968197	-0.17004478	0.029200989	0.96134033	-0.00020903355	0.012651799	1.0229417	-0.06966861	0.37239252	0.46436655	0.079419197	0.35477112	0.44704211	0.1972444	0.19041624	0.57965936	0.11305862	0.28879953	0.10888496	0.1038205	0.26623926	0.097008011	0.18419273	0.29468393	0.2736535	0.20578296	0.21045065	0.051487156	0.13337697	0.42788116	0.05659013	0.1357394
3803	38.02	0.021585712	0.64402026	0.14654262	-0.090138214	0.62656903	0.1975578	-0.19474493	0.62053748	0.0092145605	-0.0774086	0.64372803	-0.18984996	0.031668238	0.63967004	-0.13673062	0.0073892112	1.0367245	-0.0090324926	-0.046041504	1.1034707	0.16107423	-0.031289938	1.0968827	-0.17013304	0.029081636	0.96142542	-0.00028423533	0.012500409	1.0230265	-0.069727791	0.3724072	0.46441562	0.079863022	0.35469647	0.44697662	0.1976338	0.19040648	0.57959363	0.11337773	0.28874902	0.10888612	0.10379966	0.26619449	0.097137161	0.18415346	0.29467459	0.27356918	0.20598164	0.2104464	0.051559292	0.13342493	0.42789105	0.056577049	0.13572246
3804	38.03	0.021560966	0.64404517	0.14652272	-0.090113129	0.62653479	0.19761601	-0.19485756	0.62048407	0.0093560114	-0.077643623	0.64369611	-0.18980087	0.031459291	0.63969824	-0.13674307	0.007194447	1.036765	-0.0090760822	-0.046289845	1.103474	0.16100543	-0.03151849	1.0969469	-0.17022256	0.028944897	0.961487	-0.00035097286	0.012336154	1.0230934	-0.069778358	0.37241251	0.46446075	0.08033268	0.35460016	0.44691174	0.19804889	0.19038342	0.57952295	0.11371251	0.28869443	0.1088941	0.10380323	0.26616071	0.097233688	0.18412973	0.2946272	0.27349008	0.20620236	0.21044075	0.05169281	0.13353557	0.42788687	0.056574917	0.13570729
3805	38.04	0.02151296	0.64407196	0.14649899	-0.090094505	0.62650482	0.19767162	-0.19498114	0.62041516	0.0094903078	-0.077887901	0.6436449	-0.18975322	0.031243263	0.63972546	-0.13676077	0.007001492	1.036817	-0.0091360607	-0.046529152	1.1034812	0.16094748	-0.031750839	1.0970061	-0.1703161	0.028791182	0.96152972	-0.00041060597	0.01216128	1.0231473	-0.069819839	0.37240576	0.46450156	0.080821747	0.35448135	0.44685092	0.19848141	0.19034186	0.57945129	0.1140574	0.28863748	0.10890779	0.10382718	0.26613455	0.097305206	0.18412135	0.29454459	0.27341901	0.20643741	0.21043446	0.051906414	0.13372166	0.42787167	0.05658147	0.13569395
3806	38.05	0.021438698	0.64410358	0.14647873	-0.090087456	0.62648657	0.19771866	-0.19511108	0.62033429	0.0096081858	-0.07812484	0.64357764	-0.18970868	0.031033533	0.63974536	-0.13677408	0.0068057332	1.0368811	-0.0092050486	-0.046757999	1.1034926	0.16090254	-0.031991283	1.097049	-0.17041122	0.028621283	0.96155872	-0.00046554506	0.01197801	1.0231946	-0.069854027	0.37238458	0.46453824	0.081322716	0.35434149	0.44679684	0.19892351	0.19027841	0.57938312	0.11440877	0.28857941	0.10892603	0.1038666	0.26611462	0.0973573	0.18412773	0.29443442	0.27335754	0.20667886	0.21042805	0.052215511	0.13399312	0.42784796	0.056594261	0.13568272
3807	38.06	0.021336258	0.64414319	0.14646933	-0.090100502	0.62648297	0.19775362	-0.1952433	0.62024561	0.0097013273	-0.078338402	0.64349927	-0.18966939	0.030840744	0.63975537	-0.13677293	0.0066014256	1.0369535	-0.0092744255	-0.046976482	1.1035074	0.16087209	-0.032247051	1.0970609	-0.17049605	0.028436888	0.96157904	-0.00051829374	0.011787435	1.0232421	-0.069883751	0.37234683	0.4645723	0.081827202	0.35418417	0.4467515	0.19936821	0.19019225	0.57932233	0.11476487	0.2885209	0.10894777	0.10391696	0.26610028	0.097393562	0.18414809	0.2943064	0.27330582	0.2069211	0.21042171	0.052619831	0.13434735	0.42781747	0.056611004	0.13567419
